<?xml version="1.0" encoding="UTF-8" standalone="no"?>
<svg
   width="16"
   height="16"
   viewBox="0 0 16 16"
   fill="none"
   version="1.1"
   id="svg542"
   sodipodi:docname="gpio_20.svg"
   inkscape:version="1.1 (c68e22c387, 2021-05-23)"
   xmlns:inkscape="http://www.inkscape.org/namespaces/inkscape"
   xmlns:sodipodi="http://sodipodi.sourceforge.net/DTD/sodipodi-0.dtd"
   xmlns="http://www.w3.org/2000/svg"
   xmlns:svg="http://www.w3.org/2000/svg">
  <defs
     id="defs546" />
  <sodipodi:namedview
     id="namedview544"
     pagecolor="#ffffff"
     bordercolor="#666666"
     borderopacity="1.0"
     inkscape:pageshadow="2"
     inkscape:pageopacity="0.0"
     inkscape:pagecheckerboard="0"
     showgrid="false"
     inkscape:zoom="32.25"
     inkscape:cx="8"
     inkscape:cy="6.6976744"
     inkscape:window-width="1366"
     inkscape:window-height="701"
     inkscape:window-x="-8"
     inkscape:window-y="-8"
     inkscape:window-maximized="1"
     inkscape:current-layer="svg542" />
  <path
     d="m 15.278516,8.6096346 c 0.148612,0 0.29052,-0.059691 0.395554,-0.1644319 0.105036,-0.1058672 0.163139,-0.2489004 0.163139,-0.3986911 0,-0.1497906 -0.05922,-0.2928239 -0.163139,-0.398691 C 15.569036,7.5419535 15.427128,7.4833887 15.278516,7.4833887 h -1.67608 V 5.7940199 h 1.67608 c 0.148612,0 0.29052,-0.059691 0.395554,-0.1644319 0.105036,-0.105867 0.163139,-0.2489003 0.163139,-0.398691 0,-0.1497907 -0.05922,-0.2928239 -0.163139,-0.398691 C 15.569036,4.7263389 15.427128,4.6677741 15.278516,4.6677741 h -1.67608 c 0,-0.5969103 -0.235768,-1.1701694 -0.654788,-1.5925117 -0.41902,-0.4223421 -0.98777,-0.65998 -1.579984,-0.65998 V 0.72591362 c 0,-0.1497907 -0.05922,-0.29282392 -0.163139,-0.39869103 C 11.099494,0.22135544 10.957583,0.1627907 10.80897,0.1627907 c -0.148612,0 -0.29052,0.059691 -0.395555,0.16443189 -0.105034,0.10586715 -0.163138,0.24890033 -0.163138,0.39869103 V 2.4152824 H 8.5741971 V 0.72591362 c 0,-0.1497907 -0.059221,-0.29282392 -0.1631384,-0.39869103 C 8.3060243,0.22135548 8.1641162,0.1627907 8.0155038,0.1627907 c -0.1486123,0 -0.2905204,0.059691 -0.3955548,0.16443189 C 7.5149148,0.43308974 7.4568106,0.57612292 7.4568106,0.72591362 V 2.4152824 H 5.7807309 V 0.72591362 c 0,-0.1497907 -0.059221,-0.29282392 -0.1631385,-0.39869103 C 5.5125582,0.22135548 5.3706501,0.1627907 5.2220377,0.1627907 c -0.1486125,0 -0.2905206,0.059691 -0.3955548,0.16443189 C 4.7214486,0.43308974 4.6633444,0.57612292 4.6633444,0.72591362 V 2.4152824 c -0.5922148,0 -1.1609645,0.2376379 -1.5799845,0.65998 C 2.66434,3.4976047 2.4285714,4.0708638 2.4285714,4.6677741 H 0.75249169 c -0.1486124,0 -0.29052048,0.059691 -0.39555481,0.1644319 -0.10503437,0.1058669 -0.16313843,0.2489003 -0.16313843,0.398691 0,0.1497907 0.0592214,0.292824 0.16313843,0.398691 0.10503436,0.1058668 0.24694241,0.1644319 0.39555481,0.1644319 H 2.4285714 V 7.4833887 H 0.75249169 c -0.1486124,0 -0.29052048,0.059692 -0.39555481,0.1644319 -0.10503437,0.1058668 -0.16313843,0.2489004 -0.16313843,0.398691 0,0.1497907 0.0592214,0.2928239 0.16313843,0.3986911 0.10503436,0.1058668 0.24694241,0.1644319 0.39555481,0.1644319 H 2.4285714 V 10.299003 H 0.75249169 c -0.1486124,0 -0.29052048,0.05969 -0.39555481,0.164432 -0.10503437,0.105867 -0.16313843,0.248901 -0.16313843,0.398691 0,0.14979 0.0592214,0.292824 0.16313843,0.398691 0.10503436,0.105866 0.24694241,0.164432 0.39555481,0.164432 H 2.4285714 c 0,0.596911 0.2357686,1.170169 0.6547885,1.592511 0.41902,0.422343 0.9877697,0.659981 1.5799845,0.659981 v 1.689369 c 0,0.14979 0.059221,0.292824 0.1631385,0.398691 0.1050342,0.105866 0.2469423,0.164432 0.3955548,0.164432 0.1486124,0 0.2905205,-0.05969 0.3955547,-0.164432 C 5.7226268,15.659934 5.7807309,15.5169 5.7807309,15.36711 v -1.689369 h 1.6760797 v 1.689369 c 0,0.14979 0.059222,0.292824 0.1631384,0.398691 0.1050344,0.105866 0.2469425,0.164432 0.3955548,0.164432 0.1486124,0 0.2905205,-0.05969 0.3955549,-0.164432 C 8.5160931,15.659934 8.5741971,15.5169 8.5741971,15.36711 v -1.689369 h 1.6760799 v 1.689369 c 0,0.14979 0.05922,0.292824 0.163138,0.398691 0.105035,0.105866 0.246943,0.164432 0.395555,0.164432 0.148613,0 0.29052,-0.05969 0.395555,-0.164432 0.105031,-0.105866 0.163139,-0.248901 0.163139,-0.398691 v -1.689369 c 0.592214,0 1.160964,-0.237638 1.579984,-0.659981 0.41902,-0.422342 0.654788,-0.9956 0.654788,-1.592511 h 1.67608 c 0.148612,0 0.29052,-0.05969 0.395554,-0.164432 0.105036,-0.105867 0.163139,-0.248901 0.163139,-0.398691 0,-0.14979 -0.05922,-0.292824 -0.163139,-0.398691 -0.105034,-0.105867 -0.246942,-0.164432 -0.395554,-0.164432 h -1.67608 V 8.6096346 Z M 12.48505,11.425249 c 0,0.298456 -0.117326,0.585648 -0.327394,0.796256 -0.210069,0.210608 -0.493885,0.32999 -0.789992,0.32999 H 4.6633444 c -0.2961074,0 -0.581041,-0.118256 -0.7899922,-0.32999 -0.2100687,-0.211734 -0.3273943,-0.4978 -0.3273943,-0.796256 V 4.6677741 c 0,-0.2984551 0.1173256,-0.5856479 0.3273943,-0.7962558 C 4.0834208,3.6597841 4.367237,3.5415282 4.6633444,3.5415282 h 6.7043196 c 0.296107,0 0.58104,0.1182559 0.789992,0.3299901 0.210068,0.2117342 0.327394,0.4978007 0.327394,0.7962558 z M 8.0155038,10.862126 c -1.5408759,0 -2.7934661,-1.2625213 -2.7934661,-2.8156144 0,-1.553093 1.2525902,-2.8156146 2.7934661,-2.8156146 1.5408761,0 2.7934662,1.2625216 2.7934662,2.8156146 0,1.5530931 -1.2525901,2.8156144 -2.7934662,2.8156144 z m 0,-4.5049831 c -0.9240786,0 -1.6760796,0.7579634 -1.6760796,1.6893687 0,0.9314053 0.752001,1.6893688 1.6760796,1.6893688 0.9240787,0 1.6760798,-0.7579635 1.6760798,-1.6893688 0,-0.9314053 -0.7520011,-1.6893687 -1.6760798,-1.6893687 z"
     fill="#212121"
     id="path540"
     style="stroke-width:1.1218;fill:#cccccc" />
</svg>
