<?xml version="1.0" encoding="UTF-8" standalone="no"?>
<svg
   width="20"
   height="20"
   viewBox="0 0 20 20"
   fill="none"
   version="1.1"
   id="svg474"
   sodipodi:docname="launcher_config_20.svg"
   inkscape:version="1.1 (c68e22c387, 2021-05-23)"
   xmlns:inkscape="http://www.inkscape.org/namespaces/inkscape"
   xmlns:sodipodi="http://sodipodi.sourceforge.net/DTD/sodipodi-0.dtd"
   xmlns="http://www.w3.org/2000/svg"
   xmlns:svg="http://www.w3.org/2000/svg">
  <defs
     id="defs478" />
  <sodipodi:namedview
     id="namedview476"
     pagecolor="#ffffff"
     bordercolor="#666666"
     borderopacity="1.0"
     inkscape:pageshadow="2"
     inkscape:pageopacity="0.0"
     inkscape:pagecheckerboard="0"
     showgrid="false"
     inkscape:zoom="25.8"
     inkscape:cx="10"
     inkscape:cy="15.891473"
     inkscape:window-width="1366"
     inkscape:window-height="701"
     inkscape:window-x="-8"
     inkscape:window-y="-8"
     inkscape:window-maximized="1"
     inkscape:current-layer="svg474" />
  <path
     d="M 0.28800268,7.0271919 C 0.73214123,5.717685 1.463793,4.5156442 2.429186,3.4969478 2.5924381,3.324679 2.8485493,3.2632813 3.0778647,3.3414529 L 5.384946,4.1278702 c 0.625491,0.213086 1.3137379,-0.09756 1.5372564,-0.6938564 0.021985,-0.058623 0.038918,-0.1188741 0.05062,-0.180031 L 7.4123555,0.95400761 C 7.456049,0.72531716 7.6402759,0.54442629 7.8787557,0.49604197 8.57654,0.35444329 9.2919913,0.28244008 10.016872,0.28244008 c 0.724375,0 1.43937,0.071923 2.136686,0.21333818 0.238491,0.04835 0.422742,0.22912614 0.46652,0.45772487 l 0.440783,2.30038797 c 0.119065,0.6229424 0.745422,1.0358487 1.398839,0.9222373 0.06435,-0.011168 0.127485,-0.027311 0.188942,-0.048223 l 2.307105,-0.7864516 c 0.229351,-0.078171 0.485403,-0.016774 0.648727,0.1554948 0.965394,1.0186964 1.696984,2.2207373 2.141136,3.5302441 0.07493,0.2209169 0.0027,0.4631136 -0.182929,0.6133802 l -1.87005,1.5135461 c -0.506329,0.4098565 -0.568148,1.133443 -0.138308,1.616139 0.04233,0.04747 0.08851,0.0915 0.138308,0.131853 l 1.87005,1.513558 c 0.185695,0.150198 0.257856,0.392464 0.182929,0.613288 -0.444152,1.309588 -1.175742,2.511628 -2.141136,3.530337 -0.163324,0.17221 -0.419376,0.233666 -0.648727,0.155472 l -2.307105,-0.786418 c -0.625395,-0.213144 -1.313689,0.09758 -1.537268,0.693777 -0.02189,0.05871 -0.03885,0.118896 -0.05063,0.180351 l -0.440663,2.300205 c -0.04378,0.228621 -0.228029,0.409432 -0.46652,0.457701 -0.697316,0.141484 -1.412311,0.213373 -2.136686,0.213373 -0.7248807,0 -1.440332,-0.072 -2.1381163,-0.213602 C 7.6402759,19.511773 7.456049,19.330844 7.4123555,19.102222 L 6.9728353,16.802362 C 6.8536736,16.179328 6.2273407,15.766456 5.5738994,15.880079 c -0.064259,0.01112 -0.1274482,0.02728 -0.1888452,0.04826 L 3.0778647,16.714766 C 2.8485493,16.79296 2.5924381,16.731504 2.429186,16.559294 1.463793,15.540585 0.73214123,14.338545 0.28800268,13.028957 0.21307562,12.808133 0.28532066,12.565867 0.47097874,12.415669 L 2.3409692,10.902111 C 2.8472864,10.49222 2.9092125,9.7686682 2.4792898,9.285983 2.4370155,9.2385274 2.3907483,9.1944197 2.3409933,9.1541415 L 0.47097874,7.6405721 C 0.28532066,7.4903055 0.21307562,7.2481087 0.28800268,7.0271919 Z M 1.5635074,7.0208019 3.1194053,8.2801358 C 3.2189875,8.3607378 3.3115098,8.448942 3.3960584,8.5438647 4.255904,9.5092352 4.1320398,10.95634 3.1193813,11.776122 l -1.5558739,1.259253 c 0.3512434,0.896829 0.8581137,1.730484 1.4972672,2.4676 l 1.9194568,-0.654334 c 0.1229984,-0.04184 0.2493882,-0.07418 0.3778948,-0.09654 1.3068946,-0.227247 2.5595484,0.598612 2.7978959,1.844566 l 0.3655793,1.913015 c 0.490538,0.07796 0.9900725,0.117521 1.4952706,0.117521 0.504766,0 1.003999,-0.03944 1.494213,-0.117406 l 0.366577,-1.913244 c 0.02346,-0.122453 0.05724,-0.242954 0.101267,-0.360246 0.447038,-1.192525 1.823507,-1.813839 3.074537,-1.387667 l 1.919361,0.654334 c 0.639225,-0.737115 1.146035,-1.57077 1.497339,-2.4676 L 16.914255,11.776006 C 16.814673,11.695396 16.722186,11.607234 16.637638,11.5123 15.777721,10.546906 15.901597,9.0998477 16.914255,8.2801119 l 1.55591,-1.2593063 C 18.118861,6.1239413 17.612051,5.2903666 16.972826,4.5532623 L 15.053464,5.20754 C 14.930431,5.249446 14.804029,5.281733 14.675462,5.304079 13.368628,5.5312904 12.115914,4.7054778 11.877662,3.459742 L 11.511085,1.5463372 c -0.490214,-0.077873 -0.989447,-0.1173491 -1.494213,-0.1173491 -0.5051981,0 -1.0047326,0.039534 -1.4952706,0.1175096 L 8.1560101,3.4595817 C 8.1325699,3.5821019 8.0987022,3.7025811 8.0547442,3.81985 7.6077073,5.0124319 6.2311893,5.6337233 4.9801231,5.2075056 L 3.0607746,4.5532623 C 2.4216211,5.2903666 1.9147508,6.1239413 1.5635074,7.0208056 Z M 7.7302726,7.4834262 5.8267032,9.6610876 c -0.1858385,0.2126044 -0.1858385,0.5214504 0,0.7340204 l 1.6725943,1.913358 c 0.120208,0.137587 0.3417542,0.137587 0.4619622,0 l 1.111964,-1.271979 c 0.092919,-0.106286 0.092919,-0.260726 0,-0.36701 L 8.5126054,10.028098 9.2336258,9.2032481 Z m 0.782886,-0.8949724 h 3.0067054 l 2.685951,3.0726453 c 0.185814,0.2125929 0.185814,0.5214389 0,0.7340089 l -2.59575,2.969445 c -0.05713,0.06535 -0.141796,0.103193 -0.231035,0.103193 H 9.1551018 c -0.25492,0 -0.3941786,-0.283427 -0.2309746,-0.470085 l 2.5957368,-2.969563 z"
     fill="#212121"
     id="path472"
     style="fill:#cccccc;stroke-width:1.17428" />
</svg>
