<?xml version="1.0" encoding="UTF-8" standalone="no"?>
<svg
   width="20"
   height="20"
   viewBox="0 0 20 20"
   fill="none"
   version="1.1"
   id="svg4"
   sodipodi:docname="launcher_config_20.svg"
   inkscape:version="1.1 (c68e22c387, 2021-05-23)"
   xmlns:inkscape="http://www.inkscape.org/namespaces/inkscape"
   xmlns:sodipodi="http://sodipodi.sourceforge.net/DTD/sodipodi-0.dtd"
   xmlns="http://www.w3.org/2000/svg"
   xmlns:svg="http://www.w3.org/2000/svg">
  <defs
     id="defs8" />
  <sodipodi:namedview
     id="namedview6"
     pagecolor="#ffffff"
     bordercolor="#666666"
     borderopacity="1.0"
     inkscape:pageshadow="2"
     inkscape:pageopacity="0.0"
     inkscape:pagecheckerboard="0"
     showgrid="false"
     inkscape:zoom="25.8"
     inkscape:cx="10"
     inkscape:cy="9.4573643"
     inkscape:window-width="1366"
     inkscape:window-height="701"
     inkscape:window-x="-8"
     inkscape:window-y="-8"
     inkscape:window-maximized="1"
     inkscape:current-layer="svg4" />
  <path
     d="M 0.28803312,7.0007408 C 0.73263465,5.6919525 1.4650491,4.4905713 2.4314485,3.4724338 2.5948707,3.3002595 2.8512491,3.2388955 3.0808035,3.3170243 L 5.3902898,4.10301 C 6.0164329,4.3159791 6.7053973,4.005504 6.9291488,3.4095343 6.9511568,3.3509433 6.9681078,3.2907255 6.9798228,3.2296021 L 7.419813,0.93088896 C 7.4635519,0.70232399 7.6479708,0.52153238 7.8866992,0.4731746 8.585211,0.33165362 9.3014084,0.25968992 10.027045,0.25968992 c 0.725131,0 1.440871,0.0718834 2.138912,0.21322112 0.23874,0.0483234 0.423184,0.22900042 0.467007,0.45747372 l 0.441243,2.29912574 c 0.119189,0.6226006 0.746199,1.0352804 1.400298,0.9217312 0.06441,-0.011162 0.127617,-0.027296 0.189139,-0.048198 L 16.973153,3.317024 c 0.229592,-0.078128 0.485909,-0.016764 0.649403,0.1554095 0.9664,1.0181375 1.698754,2.2195187 2.143368,3.528307 0.07501,0.2207957 0.0027,0.4628595 -0.183119,0.6130437 l -1.872,1.512716 c -0.506857,0.4096316 -0.56874,1.1328208 -0.138452,1.6152538 0.04237,0.04744 0.0886,0.09144 0.138452,0.13178 l 1.872,1.512728 c 0.185888,0.150114 0.258124,0.392248 0.183119,0.612952 -0.444614,1.308868 -1.176968,2.51025 -2.143368,3.528398 -0.163494,0.172117 -0.419811,0.233538 -0.649403,0.155386 l -2.309509,-0.785986 c -0.626048,-0.213026 -1.31506,0.09752 -1.538872,0.693396 -0.02191,0.05868 -0.03889,0.118832 -0.05068,0.180254 l -0.441123,2.298942 c -0.04382,0.228496 -0.228266,0.409208 -0.467006,0.45745 -0.698045,0.141406 -1.413785,0.213256 -2.138916,0.213256 -0.7256366,0 -1.441834,-0.07196 -2.1403458,-0.213484 -0.2387284,-0.04836 -0.4231473,-0.229184 -0.4668863,-0.45768 l -0.4399784,-2.2986 C 6.8605485,16.147854 6.2335627,15.73521 5.5794403,15.84877 5.5151139,15.85989 5.4518591,15.87605 5.3903982,15.89701 L 3.0808035,16.682998 C 2.8512491,16.76115 2.5948707,16.699729 2.4314485,16.527612 1.4650491,15.509464 0.73263465,14.308082 0.28803312,12.999214 0.21302791,12.77851 0.28534835,12.536376 0.47119995,12.386262 L 2.3431398,10.873534 C 2.8499849,10.463868 2.9119755,9.7407129 2.4816045,9.2582925 2.4392862,9.210863 2.3929708,9.1667795 2.3431639,9.1265233 L 0.47119995,7.6137845 C 0.28534835,7.4636003 0.21302791,7.2215365 0.28803312,7.0007408 Z m 1.27683438,-0.00638 1.5575199,1.2586428 c 0.099686,0.080558 0.1923047,0.1687136 0.2769415,0.2635842 0.860742,0.9648408 0.7367486,2.4111512 -0.2769656,3.2304832 L 1.5648675,13.00563 c 0.3516094,0.896338 0.8590083,1.729536 1.498828,2.466247 l 1.9214578,-0.653975 c 0.1231266,-0.04182 0.2496482,-0.07414 0.3782888,-0.09648 1.308257,-0.227121 2.5622166,0.598284 2.8008126,1.843554 l 0.3659604,1.911966 c 0.4910494,0.07792 0.9911042,0.117457 1.4968299,0.117457 0.505292,0 1.005045,-0.03942 1.49577,-0.117342 l 0.366959,-1.912196 c 0.02348,-0.122384 0.05731,-0.24282 0.101375,-0.360047 0.447503,-1.19187 1.825407,-1.812843 3.077743,-1.386905 l 1.92136,0.653975 c 0.639892,-0.736711 1.147231,-1.569909 1.498901,-2.466246 L 16.93162,11.746961 c -0.09969,-0.08056 -0.192268,-0.16868 -0.276904,-0.263562 -0.860817,-0.964868 -0.736812,-2.4111319 0.276901,-3.230418 L 18.48915,6.9943581 C 18.13748,6.0979859 17.630141,5.2648685 16.990249,4.5281689 l -1.921361,0.6539185 c -0.123163,0.041884 -0.249696,0.074152 -0.378397,0.096486 C 13.382295,5.5056605 12.128274,4.680301 11.889774,3.4352487 L 11.522815,1.5228935 c -0.490725,-0.077831 -0.990478,-0.1172848 -1.49577,-0.1172848 -0.5057257,0 -1.0057805,0.039512 -1.4968299,0.1174452 L 8.1642426,3.4350883 C 8.140778,3.5575412 8.1068751,3.6779543 8.0628713,3.7951589 7.6153682,4.9870864 6.2374153,5.6080369 4.985045,5.1820531 L 3.0636955,4.5281689 C 2.4238758,5.2648685 1.9164769,6.0979859 1.5648675,6.9943581 Z M 7.7380614,7.4567276 5.8325076,9.6331941 c -0.1860323,0.2124877 -0.1860323,0.5211639 0,0.7336179 l 1.6743379,1.912309 c 0.1203335,0.13751 0.3421105,0.13751 0.4624438,0 l 1.1131231,-1.271282 c 0.093016,-0.106223 0.093016,-0.260582 0,-0.366809 L 8.5212097,10 9.2429814,9.1756031 Z M 8.5217635,6.5622435 h 3.0098395 l 2.688751,3.0709594 c 0.186008,0.2124762 0.186008,0.5211521 0,0.7336061 l -2.598455,2.967815 c -0.05719,0.06532 -0.141944,0.103137 -0.231277,0.103137 H 9.1643764 c -0.2551863,0 -0.3945901,-0.283271 -0.2312159,-0.469827 L 11.531603,10 Z"
     fill="#212121"
     id="path2"
     style="stroke-width:1.17456" />
</svg>
