<?xml version="1.0" encoding="iso-8859-1"?>
<!-- Generator: Adobe Illustrator 21.1.0, SVG Export Plug-In . SVG Version: 6.00 Build 0)  -->
<svg version="1.1" id="Layer_1" xmlns="http://www.w3.org/2000/svg" xmlns:xlink="http://www.w3.org/1999/xlink" x="0px" y="0px"
	 viewBox="0 0 24 24" enable-background="new 0 0 24 24" xml:space="preserve">
<g>
	<path fill="#303C42" d="M22.5,9.5C22.7763672,9.5,23,9.2763672,23,9s-0.2236328-0.5-0.5-0.5H21v-2h1.5
		C22.7763672,6.5,23,6.2763672,23,6s-0.2236328-0.5-0.5-0.5H21V5c0-1.1030273-0.8969727-2-2-2h-0.5V1.5
		C18.5,1.2236328,18.2763672,1,18,1s-0.5,0.2236328-0.5,0.5V3h-2V1.5C15.5,1.2236328,15.2763672,1,15,1s-0.5,0.2236328-0.5,0.5V3h-2
		V1.5C12.5,1.2236328,12.2763672,1,12,1s-0.5,0.2236328-0.5,0.5V3h-2V1.5C9.5,1.2236328,9.2763672,1,9,1S8.5,1.2236328,8.5,1.5V3h-2
		V1.5C6.5,1.2236328,6.2763672,1,6,1S5.5,1.2236328,5.5,1.5V3H5C3.8969727,3,3,3.8969727,3,5v0.5H1.5C1.2236328,5.5,1,5.7236328,1,6
		s0.2236328,0.5,0.5,0.5H3v2H1.5C1.2236328,8.5,1,8.7236328,1,9s0.2236328,0.5,0.5,0.5H3v2H1.5C1.2236328,11.5,1,11.7236328,1,12
		s0.2236328,0.5,0.5,0.5H3v2H1.5C1.2236328,14.5,1,14.7236328,1,15s0.2236328,0.5,0.5,0.5H3v2H1.5C1.2236328,17.5,1,17.7236328,1,18
		s0.2236328,0.5,0.5,0.5H3V19c0,1.1030273,0.8969727,2,2,2h0.5v1.5C5.5,22.7763672,5.7236328,23,6,23s0.5-0.2236328,0.5-0.5V21h2
		v1.5C8.5,22.7763672,8.7236328,23,9,23s0.5-0.2236328,0.5-0.5V21h2v1.5c0,0.2763672,0.2236328,0.5,0.5,0.5s0.5-0.2236328,0.5-0.5
		V21h2v1.5c0,0.2763672,0.2236328,0.5,0.5,0.5s0.5-0.2236328,0.5-0.5V21h2v1.5c0,0.2763672,0.2236328,0.5,0.5,0.5
		s0.5-0.2236328,0.5-0.5V21H19c1.1030273,0,2-0.8969727,2-2v-0.5h1.5c0.2763672,0,0.5-0.2236328,0.5-0.5s-0.2236328-0.5-0.5-0.5H21
		v-2h1.5c0.2763672,0,0.5-0.2236328,0.5-0.5s-0.2236328-0.5-0.5-0.5H21v-2h1.5c0.2763672,0,0.5-0.2236328,0.5-0.5
		s-0.2236328-0.5-0.5-0.5H21v-2H22.5z"/>
	<path fill="#7CB342" d="M20,19c0,0.5512695-0.4487305,1-1,1H5c-0.5512695,0-1-0.4487305-1-1V5c0-0.5512695,0.4487305-1,1-1h14
		c0.5512695,0,1,0.4487305,1,1V19z"/>
	<path fill="#303C42" d="M18.5,5h-13C5.2236328,5,5,5.2236328,5,5.5v13C5,18.7763672,5.2236328,19,5.5,19h13
		c0.2763672,0,0.5-0.2236328,0.5-0.5v-13C19,5.2236328,18.7763672,5,18.5,5z"/>
	<rect x="6" y="6" fill="#F3F3F3" width="12" height="12"/>
	<path opacity="0.1" fill="#010101" d="M16,6v8c0,1.1045532-0.8954468,2-2,2H6v2h12V6H16z"/>
	<linearGradient id="SVGID_1_" gradientUnits="userSpaceOnUse" x1="12.0046082" y1="12.0075378" x2="19.7052612" y2="19.7081909">
		<stop  offset="0" style="stop-color:#010101;stop-opacity:0.1"/>
		<stop  offset="1" style="stop-color:#010101;stop-opacity:0"/>
	</linearGradient>
	<path fill="url(#SVGID_1_)" d="M18.8696289,5.1700439L18.8696289,5.1700439C18.9484253,5.2584229,19,5.3721313,19,5.5v13
		c0,0.2763672-0.2236328,0.5-0.5,0.5h-13c-0.1350098,0-0.2564087-0.0546875-0.3463745-0.1414795l-0.0002441,0.0002441L6.2945557,20
		H19c0.5512695,0,1-0.4487305,1-1V6.300415L18.8696289,5.1700439z"/>
	<linearGradient id="SVGID_2_" gradientUnits="userSpaceOnUse" x1="0.6239023" y1="6.6952386" x2="23.3760967" y2="17.3047619">
		<stop  offset="0" style="stop-color:#FFFFFF;stop-opacity:0.2"/>
		<stop  offset="1" style="stop-color:#FFFFFF;stop-opacity:0"/>
	</linearGradient>
	<path fill="url(#SVGID_2_)" d="M22.5,9.5C22.7763672,9.5,23,9.2763672,23,9s-0.2236328-0.5-0.5-0.5H21v-2h1.5
		C22.7763672,6.5,23,6.2763672,23,6s-0.2236328-0.5-0.5-0.5H21V5c0-1.1030273-0.8969727-2-2-2h-0.5V1.5
		C18.5,1.2236328,18.2763672,1,18,1s-0.5,0.2236328-0.5,0.5V3h-2V1.5C15.5,1.2236328,15.2763672,1,15,1s-0.5,0.2236328-0.5,0.5V3h-2
		V1.5C12.5,1.2236328,12.2763672,1,12,1s-0.5,0.2236328-0.5,0.5V3h-2V1.5C9.5,1.2236328,9.2763672,1,9,1S8.5,1.2236328,8.5,1.5V3h-2
		V1.5C6.5,1.2236328,6.2763672,1,6,1S5.5,1.2236328,5.5,1.5V3H5C3.8969727,3,3,3.8969727,3,5v0.5H1.5C1.2236328,5.5,1,5.7236328,1,6
		s0.2236328,0.5,0.5,0.5H3v2H1.5C1.2236328,8.5,1,8.7236328,1,9s0.2236328,0.5,0.5,0.5H3v2H1.5C1.2236328,11.5,1,11.7236328,1,12
		s0.2236328,0.5,0.5,0.5H3v2H1.5C1.2236328,14.5,1,14.7236328,1,15s0.2236328,0.5,0.5,0.5H3v2H1.5C1.2236328,17.5,1,17.7236328,1,18
		s0.2236328,0.5,0.5,0.5H3V19c0,1.1030273,0.8969727,2,2,2h0.5v1.5C5.5,22.7763672,5.7236328,23,6,23s0.5-0.2236328,0.5-0.5V21h2
		v1.5C8.5,22.7763672,8.7236328,23,9,23s0.5-0.2236328,0.5-0.5V21h2v1.5c0,0.2763672,0.2236328,0.5,0.5,0.5s0.5-0.2236328,0.5-0.5
		V21h2v1.5c0,0.2763672,0.2236328,0.5,0.5,0.5s0.5-0.2236328,0.5-0.5V21h2v1.5c0,0.2763672,0.2236328,0.5,0.5,0.5
		s0.5-0.2236328,0.5-0.5V21H19c1.1030273,0,2-0.8969727,2-2v-0.5h1.5c0.2763672,0,0.5-0.2236328,0.5-0.5s-0.2236328-0.5-0.5-0.5H21
		v-2h1.5c0.2763672,0,0.5-0.2236328,0.5-0.5s-0.2236328-0.5-0.5-0.5H21v-2h1.5c0.2763672,0,0.5-0.2236328,0.5-0.5
		s-0.2236328-0.5-0.5-0.5H21v-2H22.5z"/>
</g>
<g>
</g>
<g>
</g>
<g>
</g>
<g>
</g>
<g>
</g>
<g>
</g>
<g>
</g>
<g>
</g>
<g>
</g>
<g>
</g>
<g>
</g>
<g>
</g>
<g>
</g>
<g>
</g>
<g>
</g>
</svg>
